<?xml version="1.0" encoding="UTF-8" standalone="no"?>
<!-- Created with Inkscape (http://www.inkscape.org/) -->

<svg
   version="1.1"
   id="svg1"
   width="80"
   height="80"
   viewBox="0 0 397 434"
   sodipodi:docname="LOGO..svg"
   inkscape:version="1.3.2 (091e20e, 2023-11-25, custom)"
   inkscape:export-filename="LOGO.png"
   inkscape:export-xdpi="96"
   inkscape:export-ydpi="96"
   xmlns:inkscape="http://www.inkscape.org/namespaces/inkscape"
   xmlns:sodipodi="http://sodipodi.sourceforge.net/DTD/sodipodi-0.dtd"
   xmlns="http://www.w3.org/2000/svg"
   xmlns:svg="http://www.w3.org/2000/svg">
  <defs
     id="defs1" />
  <sodipodi:namedview
     id="namedview1"
     pagecolor="#505050"
     bordercolor="#eeeeee"
     borderopacity="1"
     inkscape:showpageshadow="0"
     inkscape:pageopacity="0"
     inkscape:pagecheckerboard="0"
     inkscape:deskcolor="#505050"
     showgrid="false"
     inkscape:lockguides="false"
     inkscape:zoom="1.4142136"
     inkscape:cx="239.00209"
     inkscape:cy="157.33125"
     inkscape:window-width="1920"
     inkscape:window-height="974"
     inkscape:window-x="-11"
     inkscape:window-y="-11"
     inkscape:window-maximized="1"
     inkscape:current-layer="svg1"
     showguides="false" />
  <g
     inkscape:groupmode="layer"
     inkscape:label="Image"
     id="g1"
     style="display:inline">
    <ellipse
       style="display:inline;fill:#e98760;fill-opacity:1;stroke:#e98760;stroke-width:0.984174;stroke-dasharray:none;stroke-opacity:1"
       id="path37"
       ry="150.44565"
       rx="155.74895"
       cy="186.4994"
       cx="190.03493"
       sodipodi:insensitive="true" />
    <path
       d="m 103.25,139.61328 -61.175781,0.0352 c -2.747861,8.08462 -4.839232,16.47474 -6.152344,25.13476 L 103.25,165.29687 Z"
       style="display:inline;fill-opacity:0;stroke:#eaa579;stroke-width:0.98291"
       id="path160" />
    <path
       style="fill:#c6674e;fill-opacity:1;stroke-width:0.985756"
       d="m 208.89644,51.530328 10.27145,8.999999 0.61588,64.323213 -10.6444,-0.0732 z"
       id="path1"
       sodipodi:nodetypes="ccccc" />
    <rect
       style="fill:#455764;fill-opacity:1;stroke:#455764;stroke-width:1.0042;stroke-opacity:1"
       id="rect7"
       width="8.8362122"
       height="98.479004"
       x="263.92892"
       y="137.00325" />
    <path
       style="display:inline;fill:#ffffff;fill-opacity:1;stroke:none;stroke-width:1.00157;stroke-opacity:1"
       d="m 338.96931,169.26369 6.32032,-0.0608 c 0.66051,5.40325 0.97115,11.50473 0.98883,16.10444 z"
       id="path9"
       sodipodi:nodetypes="cccc"
       inkscape:label="path9" />
    <path
       style="fill:#eaa579;fill-opacity:1;fill-rule:nonzero;stroke:#eaa579;stroke-width:1.00157;stroke-opacity:1"
       d="m 326.0625,113.25 c 12.20827,20.99997 16.37427,38.66385 18.6875,55.70581 l -6.3945,0.0384 -69.30633,-56.03082 z"
       id="path21"
       sodipodi:nodetypes="ccccc" />
    <path
       style="fill:#f9f9f9;fill-opacity:1;fill-rule:nonzero;stroke:#f9f9f9;stroke-width:1.00486;stroke-opacity:1"
       d="m 280.62677,276.62194 49.04471,-23.62575 c 3.01447,-6.04693 5.05766,-10.38728 4.74857,-10.41161 -22.57,-27.91294 -60.38427,-6.2843 -53.79328,34.03736 z"
       id="path17"
       sodipodi:nodetypes="cccc" />
    <path
       style="display:inline;fill:#c6674e;fill-opacity:1;stroke-width:1.03996"
       d="m 294.5,114 12,11.3561 0.5,18.92683 h -13 z"
       id="path15-8" />
    <path
       d="m 182.21186,162.92809 -146.448776,2.88079 c -1.007015,6.86573 -1.681856,13.75725 -1.698546,20.69133 0.118907,30.97467 10.147258,61.15896 28.715632,86.43107 l 122.57102,0.23438 z"
       style="display:inline;fill:none;stroke:#ffffff;stroke-width:0.984888"
       id="path147"
       sodipodi:nodetypes="cccccc" />
    <path
       style="display:inline;fill:#59959e;fill-opacity:1;fill-rule:nonzero;stroke:#59959e;stroke-width:1.01874;stroke-opacity:1"
       d="M 62.006596,272.97118 C 150.32916,387.10842 290.06341,331.76541 315.49341,270.51396"
       id="path18"
       sodipodi:nodetypes="cc" />
    <path
       d="m 86.864355,110.86535 -31.319663,-0.30238 c -3.068619,4.14658 -5.369187,8.78229 -7.588541,13.42348 -1.754725,3.99821 -3.329115,8.06777 -4.71875,12.19726 l 43.466797,-0.49414 z"
       style="display:inline;fill:none;stroke:#eaa579;stroke-width:0.985114;stroke-opacity:1"
       id="path48"
       sodipodi:nodetypes="cccccc" />
    <path
       style="display:inline;fill:#eaa579;fill-opacity:1;stroke:#eaa578;stroke-width:1.00157;stroke-opacity:1"
       d="m 55.779329,110.61044 c -14.058276,26.70404 -19.433796,43.739 -19.009776,57.32742 l 6.717514,13.96536 h 49.497475 l -0.53033,-70.88746 z"
       id="path14"
       sodipodi:nodetypes="cccccc" />
    <path
       style="fill:#c6674e;fill-opacity:1"
       d="M 73.687497,120.12499 73.499997,102.25 86.406246,91.499996 86.687496,120.06249 Z"
       id="path4"
       sodipodi:nodetypes="ccccc" />
    <path
       style="display:inline;fill:#ffffff;fill-opacity:1;stroke:none;stroke-width:1.01068;stroke-opacity:1"
       d="m 86.736287,136.5 -44.213473,0.19685 -1.159457,3.40272 L 87.5,140 Z"
       id="path13"
       sodipodi:nodetypes="ccccc" />
    <ellipse
       style="fill:#c3866a;fill-opacity:1;stroke:#c3866a;stroke-width:0.892422;stroke-opacity:1"
       id="path16-2"
       cx="50.695976"
       cy="146.17664"
       rx="6.5191779"
       ry="6.4518404" />
    <path
       style="fill:#c6674e;fill-opacity:1;stroke-width:1.03996"
       d="m 269.89644,84.457103 12,11.3561 0.5,18.926827 h -13 z"
       id="path15" />
    <path
       style="fill:#c6674e;fill-opacity:1;stroke:#c6674e;stroke-width:1.002;stroke-dasharray:none;stroke-opacity:1"
       d="m 164.40232,74.246208 9.19239,10.076271 -0.35355,28.991381 -8.66206,-0.35356 z"
       id="path19" />
    <path
       style="display:inline;fill:#ffffff;stroke:#ffffff;stroke-width:1.00157;stroke-dasharray:none;stroke-opacity:1"
       d="m 86.625,90.75 0.75,63.625 H 95 L 94.875,131 94.75,119.25 l 169.35438,0.51621 v 15.82151 l 35.53214,-0.53033 -0.44194,-20.59449 -29.43332,0.26516 -0.35356,-35.090169 -47.55293,0.08839 0.26517,38.537319 -12.9047,0.26516 -0.88389,-68.67774 -35.09017,0.353553 0.0884,60.280847 -9.98788,-0.17677 V 71.417785 l -38.62571,0.53033 -0.0884,18.738329 z"
       id="path38"
       sodipodi:nodetypes="cccccccccccccccccccccc" />
    <path
       style="display:inline;fill:#ffffff;fill-opacity:1;stroke:none;stroke-width:1.00157;stroke-opacity:1"
       d="m 35.398268,164.95456 c 5.160008,1.791 6.590044,5.65318 7.912022,11.73375 l 28.195883,0.0884 0.08839,-6.0988 c -9.100281,-2.11279 -7.041101,-21.60263 1.414212,-21.65515 l 24.793024,-0.0259 0.15089,22.10781 -26.269739,-0.25 -0.202665,5.8632 26.534903,0.1875 0.09911,6.96827 -63.996397,1.21155 1.217041,-19.74783 z"
       id="path11"
       sodipodi:nodetypes="ccccsccccccccc" />
    <path
       style="display:inline;fill:#ffffff;fill-opacity:1;stroke:none;stroke-width:1.00157;stroke-opacity:1"
       d="m 34.294679,184.73165 c 0.0059,33.50915 7.472836,59.21532 21.610951,79.06337 l 40.260892,-0.22097 0.707107,-80.07984 z"
       id="path12"
       sodipodi:nodetypes="ccccc" />
    <ellipse
       style="fill:#ffffff;fill-opacity:1;fill-rule:nonzero;stroke:#ffffff;stroke-width:1.02653;stroke-opacity:1"
       id="path22"
       cx="145.75"
       cy="262.75"
       rx="29.362516"
       ry="28.487516" />
    <path
       style="fill:#ffffff;stroke:#ffffff;stroke-width:1.00157;stroke-dasharray:none;stroke-opacity:1"
       d="m 302.48498,291.18384 -10.9424,-2.83343 -15.01573,-7.0077 0.17677,-10.60659 12.46276,0.61871 c 1.34285,3.08521 15.97464,-0.0597 26.66251,4.89451 -4.88376,5.28724 -8.04222,9.59502 -13.34391,14.9345 z"
       id="path55"
       sodipodi:nodetypes="ccccccc" />
    <path
       style="display:inline;fill:#455764;fill-opacity:1;stroke:#455764;stroke-width:1.00157;stroke-opacity:1"
       d="m 264.33394,136.35707 46.96708,-0.57582 c 2.50603,-0.0307 15.77427,5.52646 19.65165,14.66161 5.49494,12.94613 16.48483,38.83839 16.48483,38.83839 0.91164,2.14784 0.87992,4.5 1,6.75 l -0.5,46.25 -14.63128,-0.0884 c -3.48839,-4.05408 -7.24115,-7.16622 -11.40599,-8.44534 -21.23772,-6.52261 -35.51849,1.94877 -40.56692,19.16483 -1.80561,6.15745 -1.29389,12.41576 -1.89581,20.65015 l -242.5,-1.03125 c -7.436753,-0.60126 -5.591852,-8.8686 -0.5,-9 l 60.06066,0.42678 -0.146446,-10.07323 -39.414214,-0.10354 c -7.302244,-0.0945 -7.497486,-10.70863 -0.625,-11 l 218.875,0.25 c 13.95496,-18.74966 30.27658,-32.32772 62,-12.25 z"
       id="path7"
       sodipodi:nodetypes="cssscccsscccccccccc"
       inkscape:label="path7" />
    <path
       style="display:inline;fill:#ffffff;fill-opacity:1;stroke:#ffffff;stroke-width:1.00066;stroke-opacity:1"
       d="m 272.45415,235.64813 0.31251,-89.45455 38.89102,-0.17646 10.78342,8.82283 17.32419,39.70269 -0.13258,36.8794 -2.56197,0.0883 c -13.9987,-15.60734 -45.25356,-17.09039 -62.07051,11.18882 l -37.50015,0.24955 -140.883023,-1.07949 -1.742536,-8.15375 z"
       id="path2"
       sodipodi:nodetypes="cccccccccccc" />
    <ellipse
       style="display:inline;fill:#ffffff;fill-opacity:1;fill-rule:nonzero;stroke:#ffffff;stroke-width:1.02653;stroke-opacity:1"
       id="path22-0"
       cx="215.87578"
       cy="262.37579"
       rx="29.362516"
       ry="28.487516" />
    <ellipse
       style="display:inline;fill:#6f8590;fill-opacity:1;stroke-width:3.76873"
       id="path16-36-0-5-8-5-8-1-4-4"
       cx="215.71181"
       cy="-264.05508"
       rx="27.372086"
       ry="27.403858"
       transform="scale(1,-1)" />
    <rect
       style="fill:#ffffff;fill-opacity:1;stroke:#ffffff;stroke-width:0.791447;stroke-opacity:1"
       id="rect17"
       width="2.2485743"
       height="8.9601231"
       x="93.832436"
       y="170.64494" />
    <path
       style="display:inline;fill:#548d98;fill-opacity:1;stroke:#548d98;stroke-width:1.00157;stroke-opacity:1"
       d="m 108.99431,282.97139 c 38.61267,22.53731 88.39503,37.2855 147.42872,-1.375 l -7.69822,1.59987 -137.3555,-0.35355 z"
       id="path6"
       sodipodi:nodetypes="ccccc" />
    <path
       style="fill:#5f99a2;fill-opacity:1;stroke:#5f99a2;stroke-width:1.00157;stroke-opacity:1"
       d="m 159.11679,288.07279 c 11.52218,3.48203 28.46372,4.1964 44.70674,0.42678 l 10.25305,2.65165 c -20.00212,8.46518 -47.45044,5.07198 -66.3556,1.19454 z"
       id="path5"
       sodipodi:nodetypes="ccccc" />
    <ellipse
       style="fill:#b4bec0;fill-opacity:1;stroke:#b4bec0;stroke-width:0.813849;stroke-opacity:1"
       id="path16"
       cx="24.064465"
       cy="145.05255"
       rx="5.9454889"
       ry="5.883513" />
    <ellipse
       style="display:inline;fill:#ffffff;fill-opacity:1;stroke:none;stroke-width:1.00157;stroke-opacity:1"
       id="path10"
       cx="59.573742"
       cy="172.18051"
       rx="13.081475"
       ry="12.551146" />
    <ellipse
       style="fill:#ff9955;fill-opacity:1;stroke-width:0.985039"
       id="path16-36"
       cx="59.600655"
       cy="172.14558"
       rx="7.147974"
       ry="7.1690245" />
    <ellipse
       style="fill:#738f93;fill-opacity:1;stroke:#738f93;stroke-width:0.872136;stroke-opacity:1"
       id="path16-3"
       cx="28.83255"
       cy="172.09314"
       rx="6.2600956"
       ry="6.4168696" />
    <path
       style="fill:#6f8590;fill-opacity:1;fill-rule:nonzero;stroke:#000000;stroke-width:1.00409;stroke-opacity:0"
       d="m 284.49753,274.20645 c -13.0345,-51.10681 63.44081,-48.99034 49.10109,0.15"
       id="path23"
       sodipodi:nodetypes="cc" />
    <ellipse
       style="display:inline;fill:#3f5960;fill-opacity:1;stroke-width:2.83185"
       id="path16-36-0-5-8-3"
       cx="309.46124"
       cy="-263.478"
       rx="20.774813"
       ry="20.386091"
       transform="scale(1,-1)" />
    <ellipse
       style="display:inline;fill:#f9f9f9;stroke-width:1.37349"
       id="path16-36-0-8-3"
       cx="309.91312"
       cy="263.30032"
       rx="10.059586"
       ry="9.9038591" />
    <ellipse
       style="fill:#738f93;fill-opacity:1;stroke:#738f93;stroke-width:0.779659;stroke-opacity:1"
       id="path16-1"
       cx="21.800156"
       cy="190.78815"
       rx="5.6500835"
       ry="5.6818576" />
    <ellipse
       style="fill:#738f93;fill-opacity:1;stroke:#738f93;stroke-width:0.886732;stroke-opacity:1"
       id="path16-27"
       cx="32.138069"
       cy="248.98706"
       rx="6.477829"
       ry="6.410491" />
    <path
       style="fill:#ff8080;stroke:#ff8080;stroke-width:0.500787;stroke-dasharray:none;stroke-opacity:1"
       d=""
       id="path20" />
    <path
       style="fill:#c6674e;fill-opacity:1;stroke:#c6674e;stroke-width:1.00157;stroke-dasharray:none;stroke-opacity:1"
       d="m 95.105862,103.06081 0.08839,7.68979 h 8.662058 l -0.0884,-7.68979 z"
       id="path39"
       sodipodi:nodetypes="ccccc" />
    <path
       style="fill:#c6674e;fill-opacity:1;stroke:#c6674e;stroke-width:1.00157;stroke-dasharray:none;stroke-opacity:1"
       d="m 113.6435,102.9254 0.0884,7.68979 h 8.66206 l -0.0884,-7.68979 z"
       id="path39-3"
       sodipodi:nodetypes="ccccc" />
    <path
       style="fill:#c6674e;fill-opacity:1;stroke:#c6674e;stroke-width:1.00157;stroke-dasharray:none;stroke-opacity:1"
       d="m 132.69365,99.79044 -1e-5,7.51301 h 7.95496 l 0.17677,-7.51301 z"
       id="path40"
       sodipodi:nodetypes="ccccc" />
    <path
       style="fill:#c6674e;fill-opacity:1;stroke:#c6674e;stroke-width:1.00157;stroke-dasharray:none;stroke-opacity:1"
       d="m 132.67091,81.494057 v 9.015611 h 8.22011 l 0.0884,-8.927223 z"
       id="path41"
       sodipodi:nodetypes="ccccc" />
    <path
       style="display:inline;fill:#c6674e;fill-opacity:1;stroke:#c6674e;stroke-width:1.00157;stroke-dasharray:none;stroke-opacity:1"
       d="m 148.15309,99.98621 -1e-5,7.51301 h 7.95496 l 0.17677,-7.51301 z"
       id="path40-3"
       sodipodi:nodetypes="ccccc" />
    <path
       style="display:inline;fill:#c6674e;fill-opacity:1;stroke:#c6674e;stroke-width:1.00157;stroke-dasharray:none;stroke-opacity:1"
       d="m 148.13035,81.689832 v 9.015609 h 8.22011 l 0.0884,-8.927221 z"
       id="path41-5"
       sodipodi:nodetypes="ccccc" />
    <path
       style="fill:#c6674e;fill-opacity:1;stroke:#c6674e;stroke-width:1.00157;stroke-dasharray:none;stroke-opacity:1"
       d="m 194.83563,94.66392 -0.0884,7.86656 h 8.57367 v -7.86656 z"
       id="path42"
       sodipodi:nodetypes="ccccc" />
    <path
       style="fill:#c6674e;fill-opacity:1;stroke:#c6674e;stroke-width:1.00157;stroke-dasharray:none;stroke-opacity:1"
       d="m 194.5671,77.330921 -0.0884,7.86656 h 8.57367 v -7.86656 z"
       id="path42-3"
       sodipodi:nodetypes="ccccc" />
    <path
       style="fill:#c6674e;fill-opacity:1;stroke:#c6674e;stroke-width:1.00157;stroke-dasharray:none;stroke-opacity:1"
       d="m 194.78372,59.311892 -0.0884,7.86656 h 8.57367 v -7.86656 z"
       id="path42-5"
       sodipodi:nodetypes="ccccc" />
    <path
       style="display:inline;fill:#c6674e;fill-opacity:1;stroke:#c6674e;stroke-width:1.00157;stroke-dasharray:none;stroke-opacity:1"
       d="m 180.25155,94.736696 -0.0884,7.866554 h 8.57367 v -7.866554 z"
       id="path42-2"
       sodipodi:nodetypes="ccccc" />
    <path
       style="display:inline;fill:#c6674e;fill-opacity:1;stroke:#c6674e;stroke-width:1.00157;stroke-dasharray:none;stroke-opacity:1"
       d="m 179.98302,77.403697 -0.0884,7.86656 h 8.57367 v -7.86656 z"
       id="path42-3-9"
       sodipodi:nodetypes="ccccc" />
    <path
       style="display:inline;fill:#c6674e;fill-opacity:1;stroke:#c6674e;stroke-width:1.00157;stroke-dasharray:none;stroke-opacity:1"
       d="m 180.19964,59.384668 -0.0884,7.86656 h 8.57367 v -7.86656 z"
       id="path42-5-4"
       sodipodi:nodetypes="ccccc" />
    <path
       style="fill:#c6674e;fill-opacity:1;stroke:#c6674e;stroke-width:1.00157;stroke-dasharray:none;stroke-opacity:1"
       d="m 231.84264,89.272231 v 7.247844 l 9.01561,-0.08839 -0.17679,-7.159456 z"
       id="path43"
       sodipodi:nodetypes="ccccc" />
    <path
       style="fill:#c6674e;fill-opacity:1;stroke:#c6674e;stroke-width:1.00157;stroke-dasharray:none;stroke-opacity:1"
       d="m 251.1282,89.36735 v 7.247844 l 9.01561,-0.08839 -0.17679,-7.159456 z"
       id="path43-6"
       sodipodi:nodetypes="ccccc" />
    <path
       style="fill:#c6674e;fill-opacity:1;stroke:#c6674e;stroke-width:1.00157;stroke-dasharray:none;stroke-opacity:1"
       d="m 232.05534,105.97745 v 7.24784 l 9.01561,-0.0884 -0.17679,-7.15946 z"
       id="path43-2"
       sodipodi:nodetypes="ccccc" />
    <path
       style="fill:#c6674e;fill-opacity:1;stroke:#c6674e;stroke-width:1.00157;stroke-dasharray:none;stroke-opacity:1"
       d="m 251.07965,106.52852 v 7.24784 l 9.01561,-0.0884 -0.17679,-7.15946 z"
       id="path43-21"
       sodipodi:nodetypes="ccccc" />
    <rect
       style="display:inline;fill:#455764;fill-opacity:1;stroke:#455764;stroke-width:1.00544;stroke-dasharray:none;stroke-opacity:1"
       id="rect58"
       width="166.99612"
       height="114.13001"
       x="96.885818"
       y="120.54482"
       ry="0.25194263"
       sodipodi:insensitive="true" />
    <rect
       style="display:inline;fill:#f0f3ec;fill-opacity:1;stroke:#f0f3ec;stroke-width:1.00157;stroke-dasharray:none;stroke-opacity:1"
       id="rect59"
       width="145.75"
       height="95.25"
       x="106.25"
       y="131"
       ry="0.25"
       sodipodi:insensitive="true" />
    <path
       style="display:inline;fill:#a2b4ba;fill-opacity:1;stroke:#9aadb3;stroke-width:1.0164;stroke-dasharray:none;stroke-opacity:0"
       d="m 105.73444,217.88687 146.76817,0.32894 0.044,8.61046 -146.84073,-0.0569 z"
       id="path58"
       sodipodi:nodetypes="ccccc"
       inkscape:label="path58" />
    <path
       d="m 118.17578,218.4043 v -65.49219 h -9.72265 v 65.46875 z"
       style="fill:#b4bec0;stroke:#b4bec0;stroke-width:1.00157"
       id="path131" />
    <path
       d="m 118.17578,218.4043 -9.72265,-0.0234 v 7.89258 h 9.72265 z"
       style="fill:#809299;fill-opacity:1;stroke:#809299;stroke-width:1.00157;stroke-opacity:1"
       id="path130" />
    <path
       d="m 132.58203,218.4375 v -64.19922 h -10.25195 v 64.17578 z"
       style="fill:#b4bec0;stroke:#b4bec0;stroke-width:1.00208"
       id="path129" />
    <path
       d="m 132.58171,218.43785 -10.25131,-0.0234 v 7.86002 h 10.25131 z"
       style="fill:#809299;fill-opacity:1;stroke:#809299;stroke-width:1.00271;stroke-opacity:1"
       id="path128" />
    <path
       d="m 146.81445,218.4707 v -83.06054 h -9.90234 v 83.03711 z"
       style="fill:#b4bec0;stroke:#b4bec0;stroke-width:0.999673"
       id="path127" />
    <path
       d="m 146.81382,218.4714 -9.90108,-0.0235 v 7.83722 h 9.90108 z"
       style="fill:#809299;fill-opacity:1;stroke:#809299;stroke-width:1.00094;stroke-opacity:1"
       id="path126" />
    <path
       d="M 160.95508,218.50391 V 135.5 h -9.89844 v 82.98047 z"
       style="fill:#b4bec0;stroke:#b4bec0;stroke-width:1.00157"
       id="path125" />
    <path
       d="m 160.95219,218.5071 -9.89266,-0.0237 v 7.79873 h 9.89266 z"
       style="fill:#809299;fill-opacity:1;stroke:#809299;stroke-width:1.00734;stroke-opacity:1"
       id="path124" />
    <path
       d="m 174.03711,218.53516 v -55.98829 h -9.36914 v 55.9668 z"
       style="fill:#b4bec0;stroke:#b4bec0;stroke-width:1.00238"
       id="path123" />
    <path
       d="m 174.03711,218.53516 -9.36914,-0.0215 v 7.78125 h 9.36914 z"
       style="fill:#809299;fill-opacity:1;stroke:#809299;stroke-width:1.00238;stroke-opacity:1"
       id="path122" />
    <path
       d="m 188.35547,218.56836 v -78.56055 h -10.60742 v 78.53516 z"
       style="fill:#b4bec0;stroke:#b4bec0;stroke-width:1.00157"
       id="path121" />
    <path
       d="m 188.35483,218.56907 -10.60614,-0.0255 v 7.75127 h 10.60614 z"
       style="fill:#809299;fill-opacity:1;stroke:#809299;stroke-width:1.00286;stroke-opacity:1"
       id="path120" />
    <path
       d="m 200.87891,218.59766 v -82.45118 h -9.84375 v 82.42774 z"
       style="fill:#b4bec0;stroke:#b4bec0;stroke-width:0.881791"
       id="path119" />
    <path
       d="m 200.8776,218.59912 -9.84113,-0.0236 v 7.78241 h 9.84113 z"
       style="fill:#809299;fill-opacity:1;stroke:#809299;stroke-width:0.884408;stroke-opacity:1"
       id="path118" />
    <path
       d="m 213.21289,218.62695 v -60.52148 h -9.41016 v 60.5 z"
       style="fill:#b4bec0;stroke:#b4bec0;stroke-width:0.959419"
       id="path117" />
    <path
       d="m 213.21267,218.62719 -9.40972,-0.0215 v 7.72027 h 9.40972 z"
       style="fill:#809299;fill-opacity:1;stroke:#809299;stroke-width:0.959856;stroke-opacity:1"
       id="path116" />
    <path
       d="m 226.80078,218.6582 v -80.67968 h -10.42187 v 80.65625 z"
       style="fill:#b4bec0;stroke:#b4bec0;stroke-width:1.01033"
       id="path115" />
    <path
       d="m 226.8002,218.65884 -10.42071,-0.0235 V 226.31 h 10.42071 z"
       style="fill:#809299;fill-opacity:1;stroke:#809299;stroke-width:1.01149;stroke-opacity:1"
       id="path114" />
    <path
       d="m 229.71289,135.22656 v 83.43946 l 9.74023,0.0234 v -83.46289 z"
       style="fill:#b4bec0;stroke:#b4bec0;stroke-width:0.984782"
       id="path112" />
    <path
       d="m 239.45168,218.69104 -9.73735,-0.0235 v 7.66402 h 9.73735 z"
       style="fill:#809299;fill-opacity:1;stroke:#809299;stroke-width:0.987659;stroke-opacity:1"
       id="path113" />
    <path
       d="m 242.44845,218.71306 8.31013,0.0183 v -77.94801 h -8.31013 z"
       style="fill:#b4bec0;stroke:#b4bec0;stroke-width:1.00046"
       id="path132" />
    <path
       d="m 242.46516,218.69563 v 7.61169 h 8.27671 v -7.59213 z"
       style="fill:#809299;fill-opacity:1;stroke:#809299;stroke-width:1.03386;stroke-opacity:1"
       id="path133" />
    <path
       style="fill:#ffffff;stroke:#ffffff;stroke-width:1.00157;stroke-dasharray:none;stroke-opacity:1"
       d="m 281.5,283 c -37.06711,32.61483 -91.77382,41.44198 -156.5,24 48.39085,20.17312 104.1352,29.29589 168.625,-18.125 z"
       id="path56"
       sodipodi:nodetypes="cccc" />
    <path
       style="display:inline;fill:#455764;fill-opacity:1;stroke:#455764;stroke-width:1.00157;stroke-dasharray:none;stroke-opacity:1"
       d="m 282.75,155.75 h 26.625 c 2.73828,0.0128 4.802,1.23974 5.875,4.25 L 330.125,193.25 283,193.125 Z"
       id="path59"
       sodipodi:nodetypes="cccccc" />
    <rect
       style="fill:#455764;fill-opacity:1;stroke:#455764;stroke-width:1.01986;stroke-dasharray:none;stroke-opacity:1"
       id="rect60"
       width="11.231707"
       height="5.2317066"
       x="283.75916"
       y="197.63414" />
    <path
       style="display:inline;fill:#455764;fill-opacity:1;stroke:#455764;stroke-width:1.00157;stroke-opacity:1"
       d="M 97.050406,233.87557 V 120.38493 l -60.104077,0.35355 c -8.802329,0.26517 -8.430856,9.63433 0.353554,9.81111 l 58.535183,-0.53033 0.195734,24.42643 -22.403306,0.4107 c -6.350861,-0.031 -5.880204,10.08574 -0.08839,10.16466 l 23.776466,0.26516 -0.441942,18.73833 -54.270445,0.26517 c -6.086316,0.009 -5.577926,10.71094 0.08839,10.6066 l 52.502679,-0.0884 -0.08839,9.19239 -82.819882,0.44194 c -6.2021305,0.0395 -6.696381,9.25059 0.265165,9.45755 l 84.499261,-0.61872 -0.176779,10.16466 -72.655222,0.0884 c -5.923122,0.008 -5.350372,9.81187 -0.176777,9.89949 z"
       id="path8"
       sodipodi:nodetypes="ccccccccccccccccccccc" />
    <ellipse
       style="display:inline;fill:#6f8590;fill-opacity:1;stroke-width:3.76873"
       id="path16-36-0-5-8-5-8-1-4"
       cx="145.65926"
       cy="-264.15262"
       rx="27.372086"
       ry="27.403858"
       transform="scale(1,-1)" />
    <path
       style="fill:#ffffff;stroke:#ffffff;stroke-width:1.00157;stroke-dasharray:none;stroke-opacity:1"
       d="m 96.125,273.8125 13,8.625 H 125 c 9.41136,9.92198 29.90096,10.75867 40.375,0.125 H 194.5 c 12.24942,8.84172 26.03877,11.54556 40.625,0 l 43.75,-0.375 0.125,-7.625 z"
       id="path54"
       sodipodi:nodetypes="ccccccccc" />
    <ellipse
       style="display:inline;fill:#3f5960;fill-opacity:1;stroke-width:2.97746"
       id="path16-36-0-5-8-5"
       cx="145.40242"
       cy="-264.52884"
       rx="21.747086"
       ry="21.528858"
       transform="scale(1,-1)" />
    <ellipse
       style="display:inline;fill:#3f5960;fill-opacity:1;stroke-width:2.97746"
       id="path16-36-0-5-8-5-4"
       cx="215.45497"
       cy="-264.4313"
       rx="21.747086"
       ry="21.528858"
       transform="scale(1,-1)" />
    <ellipse
       style="display:inline;fill:#ffffff;fill-opacity:1;stroke-width:1.37349"
       id="path16-36-0-0"
       cx="215.39247"
       cy="-263.60809"
       rx="10.059586"
       ry="9.9038591"
       transform="scale(1,-1)"
       inkscape:label="path16-36-0-0" />
    <ellipse
       style="display:inline;fill:#ffffff;fill-opacity:1;stroke-width:1.37349"
       id="path16-36-0"
       cx="145.33992"
       cy="-263.70563"
       rx="10.059586"
       ry="9.9038591"
       transform="scale(1,-1)" />
    <rect
       style="display:inline;fill:#c6674e;fill-opacity:1;stroke:#c6674e;stroke-width:1.002;stroke-dasharray:none;stroke-opacity:1"
       id="rect19"
       width="24.130018"
       height="6.0987959"
       x="269.52637"
       y="125.42567" />
  </g>
</svg>
